<?xml version="1.0" encoding="iso-8859-1"?>

<!DOCTYPE svg PUBLIC "-//W3C//DTD SVG 1.1//EN" "http://www.w3.org/Graphics/SVG/1.1/DTD/svg11.dtd">
<!-- Uploaded to: SVG Repo, www.svgrepo.com, Generator: SVG Repo Mixer Tools -->
<svg height="800px" width="800px" version="1.1" id="_x36_" xmlns="http://www.w3.org/2000/svg" xmlns:xlink="http://www.w3.org/1999/xlink" 
	 viewBox="0 0 512 512"  xml:space="preserve">
<g>
	<g>
		<polygon style="fill:#D6D5D5;" points="273.221,120.258 106.811,286.672 147.874,327.736 314.281,161.325 		"/>
		<polygon style="fill:#C17B39;" points="29.964,434.577 0,404.624 0,374.431 144.829,229.602 204.944,289.714 60.088,434.57 		"/>
	</g>
	<polygon style="fill:#ADACAD;" points="270.399,123.081 213.768,179.704 295.896,179.704 310.958,164.649 	"/>
	<g>
		<path style="fill:#504F4F;" d="M266.248,63.565l1.226,1.524C266.983,64.479,266.567,63.943,266.248,63.565z M268.311,66.089
			c-0.072-0.065-0.134-0.155-0.219-0.244l0.299,0.392c-0.007-0.035-0.038-0.069-0.052-0.124
			C268.339,66.113,268.325,66.103,268.311,66.089z M195.516,11.69c25.847,10.341,53.407,34.451,70.11,51.144l0.1,0.1
			c0,0,0.01,0.02,0.044,0.044c0.951,0.979,1.803,2.012,2.541,3.111c0.014,0.014,0.027,0.024,0.027,0.024
			c0.347,0.467,0.718,0.934,1.092,1.401l-1.04-1.277c7.406,11.241,3.879,29.012-11.67,44.555l-6.204,20.508l53.97,53.963
			l21.157-5.548l19.529-19.526c9.751-9.751,26.664-12.377,42.169,3.125c8.659,8.662,4.264,21.208,6.009,31.316
			c0.563,3.289,1.764,6.317,4.326,8.872l37.926,37.919c5.383,5.397,14.132,5.383,19.515-0.007l52.834-52.827
			c5.383-5.39,5.398-14.142,0.014-19.523l-37.926-37.932c-2.561-2.548-5.582-3.76-8.879-4.313
			c-10.101-1.747-22.654,2.644-31.313-6.005c-10.163-10.166-0.069-23.364-8.295-37.009c-1.085-1.823-2.493-3.646-4.313-5.459
			c0,0-43.687-43.694-73.544-73.551c-37.908-37.908-103.373-35.618-143.857-19.828C184.038-11.283,179.056,5.084,195.516,11.69z"/>
		<path style="fill:#5B5B5C;" d="M461.159,126.819l-67.81,67.81c0.563,3.289,1.764,6.317,4.326,8.872l37.926,37.919
			c5.383,5.397,14.132,5.383,19.515-0.007l52.834-52.827c5.383-5.39,5.398-14.142,0.014-19.523l-37.926-37.932
			C467.477,128.584,464.456,127.372,461.159,126.819z"/>
		<path style="fill:#5B5B5C;" d="M195.516,11.69c25.847,10.341,53.407,34.451,70.11,51.144l0.1,0.1c0,0,0.01,0.02,0.044,0.044
			c0.055,0.089,0.189,0.244,0.374,0.467l0.103,0.12l1.226,1.524l0.618,0.755l0.299,0.392c7.406,11.241,3.879,29.012-11.67,44.555
			l-6.204,20.508l53.97,53.963l21.157-5.548l95.909-95.91c-1.085-1.823-2.493-3.646-4.313-5.459c0,0-43.687-43.694-73.544-73.551
			c-37.908-37.908-103.373-35.618-143.857-19.828C184.038-11.283,179.056,5.084,195.516,11.69z"/>
		<path style="fill:#777778;" d="M507.957,188.587l-52.82,52.834c-5.398,5.397-14.153,5.397-19.543,0l72.363-72.37
			C513.348,174.445,513.348,183.196,507.957,188.587z"/>
	</g>
</g>
</svg>